#N canvas 181 321 474 351 12;
#X obj 60 123 vsl 15 75 -25 65 0 0 empty empty empty 0 -9 0 10 -262144
-1 -1 0 0;
#X obj 48 233 f;
#X obj 90 123 vsl 15 75 -25 65 0 0 empty empty empty 0 -9 0 10 -262144
-1 -1 0 0;
#X obj 78 233 f;
#X obj 120 123 vsl 15 75 -25 65 0 0 empty empty empty 0 -9 0 10 -262144
-1 -1 0 0;
#X obj 108 233 f;
#X obj 150 123 vsl 15 75 -25 65 0 0 empty empty empty 0 -9 0 10 -262144
-1 -1 0 0;
#X obj 138 233 f;
#X obj 180 123 vsl 15 75 -25 65 0 0 empty empty empty 0 -9 0 10 -262144
-1 -1 0 0;
#X obj 168 233 f;
#X obj 210 123 vsl 15 75 -25 65 0 0 empty empty empty 0 -9 0 10 -262144
-1 -1 0 0;
#X obj 198 233 f;
#X obj 240 123 vsl 15 75 -25 65 0 0 empty empty empty 0 -9 0 10 -262144
-1 -1 0 0;
#X obj 228 233 f;
#X obj 270 123 vsl 15 75 -25 65 0 0 empty empty empty 0 -9 0 10 -262144
-1 -1 0 0;
#X obj 258 233 f;
#X obj 114 31 r arp_clock;
#X obj 114 55 cyclone/counter 0 7;
#X obj 294 26 bng 15 250 50 0 empty empty empty 17 7 0 10 -262144 -1
-1;
#X obj 367 5 r arp_reset;
#X obj 114 79 sel 0 1 2 3 4 5 6 7;
#X obj 98 287 spigot;
#X obj 298 132 tgl 25 0 empty empty filter_arp 0 -8 0 10 -262144 -1
-1 0 1;
#X obj 98 311 s rgCutoff;
#X connect 0 0 1 1;
#X connect 1 0 21 0;
#X connect 2 0 3 1;
#X connect 3 0 21 0;
#X connect 4 0 5 1;
#X connect 5 0 21 0;
#X connect 6 0 7 1;
#X connect 7 0 21 0;
#X connect 8 0 9 1;
#X connect 9 0 21 0;
#X connect 10 0 11 1;
#X connect 11 0 21 0;
#X connect 12 0 13 1;
#X connect 13 0 21 0;
#X connect 14 0 15 1;
#X connect 15 0 21 0;
#X connect 16 0 17 0;
#X connect 17 0 20 0;
#X connect 18 0 17 2;
#X connect 19 0 18 0;
#X connect 20 0 1 0;
#X connect 20 1 3 0;
#X connect 20 2 5 0;
#X connect 20 3 7 0;
#X connect 20 4 9 0;
#X connect 20 5 11 0;
#X connect 20 6 13 0;
#X connect 20 7 15 0;
#X connect 21 0 23 0;
#X connect 22 0 21 1;
#X coords 0 -1 1 1 310 90 2 50 115;
