#N canvas 176 187 1194 828 12;
#X floatatom 169 175 5 0 0 2 bpm - -, f 5;
#X floatatom 660 218 5 0 0 0 - - -, f 5;
#X obj 446 301 metro 250;
#X floatatom 236 325 5 0 0 0 - - -, f 5;
#X floatatom 275 345 5 0 0 0 - - -, f 5;
#X obj 275 366 t f f;
#X obj 316 398 sel 0;
#X msg 316 422 0;
#X msg 356 422 1;
#X obj 236 386 f;
#X obj 275 400 f;
#X obj 660 154 * 1;
#X msg 823 137 4;
#X msg 763 137 1;
#X msg 793 137 2;
#X msg 853 137 8;
#X msg 883 137 16;
#X msg 773 167 1.5;
#X msg 803 167 3;
#X msg 833 167 6;
#X msg 863 167 12;
#X obj 763 251 f;
#X obj 763 305 t b f;
#X obj 763 275 change;
#X obj 446 222 t f f;
#X obj 478 256 sel 1;
#X obj 110 106 vradio 15 1 0 10 empty empty empty 0 -8 0 10 -262144
-1 -1 4;
#X text 128 104 1;
#X text 128 120 1T;
#X text 128 134 2;
#X text 128 151 2T;
#X text 128 164 4;
#X text 128 180 4T;
#X text 128 194 8;
#X text 128 210 8T;
#X text 128 224 16;
#X text 128 240 16T;
#X msg 893 167 24;
#X obj 737 96 sel 0 1 2 3 4 5 6 7 8 9;
#X obj 110 311 s \$0_arp_time;
#X obj 737 68 r \$0_arp_time;
#X obj 407 190 spigot;
#X obj 407 138 tgl 15 0 empty empty empty 17 7 0 10 -262144 -1 -1 0
1;
#X obj 92 12 loadbang;
#X msg 92 36 4;
#X obj 170 120 tgl 25 0 empty empty arpeggiator 0 -8 0 10 -262144 -1
-1 1 1;
#X text 236 596 note;
#X text 312 596 velocity;
#X text 233 251 note;
#X text 309 251 velocity;
#X msg 122 36 75;
#N canvas 1 77 450 300 bpm2ms 0;
#X obj 41 151 /;
#X obj 19 123 60000;
#X obj 25 96 t b f;
#X obj 25 45 inlet;
#X floatatom 25 72 5 0 0 0 - - -, f 5;
#X obj 41 201 outlet;
#X text 11 9 convert tempo in beats per minute;
#X text 10 25 to beat duration in millisecs;
#X floatatom 41 175 5 0 0 0 - - -, f 5;
#X connect 0 0 8 0;
#X connect 1 0 0 0;
#X connect 2 0 1 0;
#X connect 2 1 0 1;
#X connect 3 0 4 0;
#X connect 4 0 2 0;
#X connect 8 0 5 0;
#X restore 660 188 pd bpm2ms;
#X obj 236 274 r i_note;
#X obj 316 274 r i_vel;
#X obj 236 566 s note;
#X obj 312 566 s vel;
#X text 458 457 note;
#X text 534 457 velocity;
#X obj 461 480 r i_note;
#X obj 541 480 r i_vel;
#X obj 294 165 swap 1;
#X obj 294 189 -;
#X obj 461 504 spigot 1;
#X obj 541 504 spigot 1;
#X obj 517 131 sel 0;
#X msg 517 157 0;
#X obj 446 325 t b b b b;
#X obj 534 365 s arp_clock;
#X obj 517 187 s arp_reset;
#X obj 262 128 t f f f;
#X obj 322 309 f;
#X obj 236 298 t b f;
#X connect 0 0 11 0;
#X connect 1 0 2 1;
#X connect 2 0 66 0;
#X connect 3 0 9 1;
#X connect 4 0 5 0;
#X connect 5 0 6 0;
#X connect 5 1 10 1;
#X connect 6 0 7 0;
#X connect 6 1 8 0;
#X connect 7 0 42 0;
#X connect 8 0 42 0;
#X connect 9 0 54 0;
#X connect 10 0 55 0;
#X connect 11 0 51 0;
#X connect 12 0 21 1;
#X connect 13 0 21 1;
#X connect 14 0 21 1;
#X connect 15 0 21 1;
#X connect 16 0 21 1;
#X connect 17 0 21 1;
#X connect 18 0 21 1;
#X connect 19 0 21 1;
#X connect 20 0 21 1;
#X connect 21 0 23 0;
#X connect 22 0 11 0;
#X connect 22 1 11 1;
#X connect 23 0 22 0;
#X connect 24 0 2 0;
#X connect 24 1 25 0;
#X connect 25 0 21 0;
#X connect 26 0 39 0;
#X connect 37 0 21 1;
#X connect 38 0 13 0;
#X connect 38 1 17 0;
#X connect 38 2 14 0;
#X connect 38 3 18 0;
#X connect 38 4 12 0;
#X connect 38 5 19 0;
#X connect 38 6 15 0;
#X connect 38 7 20 0;
#X connect 38 8 16 0;
#X connect 38 9 37 0;
#X connect 40 0 38 0;
#X connect 41 0 24 0;
#X connect 42 0 41 0;
#X connect 42 0 64 0;
#X connect 43 0 44 0;
#X connect 43 0 50 0;
#X connect 44 0 26 0;
#X connect 45 0 69 0;
#X connect 50 0 0 0;
#X connect 51 0 1 0;
#X connect 52 0 71 0;
#X connect 53 0 70 1;
#X connect 58 0 62 0;
#X connect 59 0 63 0;
#X connect 60 0 61 0;
#X connect 60 1 61 1;
#X connect 61 0 62 1;
#X connect 61 0 63 1;
#X connect 62 0 54 0;
#X connect 63 0 55 0;
#X connect 64 0 65 0;
#X connect 65 0 68 0;
#X connect 66 0 9 0;
#X connect 66 1 10 0;
#X connect 66 2 21 0;
#X connect 66 3 67 0;
#X connect 69 0 41 1;
#X connect 69 1 60 0;
#X connect 69 2 42 0;
#X connect 70 0 4 0;
#X connect 71 0 70 0;
#X connect 71 1 3 0;
#X coords 0 -1 1 1 140 165 2 100 100;
