#N canvas 424 177 939 371 12;
#X obj 830 204 tgl 25 0 dsp_on_off empty AUDIO_ON_OFF 0 -8 0 10 -262144
-1 -1 0 1;
#N canvas 1 77 676 497 CORE 0;
#N canvas 1 77 1121 659 OSCILLATORS 0;
#X obj 351 312 +~;
#X obj 383 40 r freq;
#X floatatom 383 64 5 0 0 0 - - -, f 5;
#X obj 383 85 pack 0 5;
#X obj 383 109 line~;
#X floatatom 443 64 5 0 0 0 - - -, f 5;
#X obj 581 203 line~;
#X obj 701 203 line~;
#X obj 581 84 r gSquare_vol;
#X floatatom 581 108 5 0 0 0 - - -, f 5;
#X floatatom 701 108 5 0 0 0 - - -, f 5;
#X obj 581 129 dbtorms;
#X floatatom 581 153 5 0 0 0 - - -, f 5;
#X obj 701 129 dbtorms;
#X floatatom 701 153 5 0 0 0 - - -, f 5;
#X obj 701 84 r gSaw_vol;
#X msg 581 179 \$1 10;
#X msg 701 179 \$1 10;
#X obj 352 498 *~ 0.125;
#X obj 352 521 rzero~ -1;
#X obj 352 544 rzero~ -1;
#X obj 352 567 rzero~ -1;
#X obj 352 601 outlet~;
#X obj 351 395 rpole~ 0.87467;
#X obj 351 372 *~ 0.12532;
#X obj 351 418 *~ 0.01668;
#X obj 351 441 cpole~ 0.9293 0.10812;
#X obj 351 467 cpole~ 0.9293 -0.10812;
#X obj 791 12 block~ 1024 1 16;
#X obj 243 268 *~;
#X obj 423 268 *~;
#X obj 383 193 phasor~;
#X obj 246 27 loadbang;
#X obj 243 207 expr~ $v1>$v2;
#X msg 246 51 0.5;
#X obj 246 75 sig~;
#X obj 246 149 +~;
#X obj 383 217 *~ -2;
#X obj 383 241 +~ 1;
#X floatatom 202 67 5 0 0 0 - - -, f 5;
#X obj 26 30 inlet~;
#X obj 443 40 r gPorta;
#X obj 96 30 inlet~;
#X obj 383 163 +~;
#X obj 553 268 *~;
#X obj 811 203 line~;
#X floatatom 811 108 5 0 0 0 - - -, f 5;
#X obj 811 129 dbtorms;
#X floatatom 811 153 5 0 0 0 - - -, f 5;
#X msg 811 179 \$1 10;
#X obj 811 84 r gNoise_vol;
#X obj 475 119 noise~;
#X obj 475 143 hip~ 200;
#X obj 553 292 *~ 0.35;
#X obj 351 336 *~ 0.3;
#X text 26 8 pwm in;
#X text 96 8 lfo tune in;
#X obj 383 133 +~;
#X obj 911 203 line~;
#X floatatom 911 153 5 0 0 0 - - -, f 5;
#X msg 911 179 \$1 10;
#X obj 911 129 r tune;
#X connect 0 0 54 0;
#X connect 1 0 2 0;
#X connect 2 0 3 0;
#X connect 3 0 4 0;
#X connect 4 0 57 0;
#X connect 5 0 3 1;
#X connect 6 0 29 1;
#X connect 7 0 30 1;
#X connect 8 0 9 0;
#X connect 9 0 11 0;
#X connect 10 0 13 0;
#X connect 11 0 12 0;
#X connect 12 0 16 0;
#X connect 13 0 14 0;
#X connect 14 0 17 0;
#X connect 15 0 10 0;
#X connect 16 0 6 0;
#X connect 17 0 7 0;
#X connect 18 0 19 0;
#X connect 19 0 20 0;
#X connect 20 0 21 0;
#X connect 21 0 22 0;
#X connect 23 0 25 0;
#X connect 24 0 23 0;
#X connect 25 0 26 0;
#X connect 26 0 27 0;
#X connect 26 1 27 1;
#X connect 27 0 18 0;
#X connect 29 0 0 0;
#X connect 30 0 0 0;
#X connect 31 0 33 0;
#X connect 31 0 37 0;
#X connect 32 0 34 0;
#X connect 33 0 29 0;
#X connect 34 0 35 0;
#X connect 35 0 36 0;
#X connect 36 0 33 1;
#X connect 37 0 38 0;
#X connect 38 0 30 0;
#X connect 39 0 35 0;
#X connect 40 0 36 1;
#X connect 41 0 5 0;
#X connect 42 0 43 1;
#X connect 43 0 31 0;
#X connect 44 0 53 0;
#X connect 45 0 44 1;
#X connect 46 0 47 0;
#X connect 47 0 48 0;
#X connect 48 0 49 0;
#X connect 49 0 45 0;
#X connect 50 0 46 0;
#X connect 51 0 52 0;
#X connect 52 0 44 0;
#X connect 53 0 22 0;
#X connect 54 0 24 0;
#X connect 57 0 43 0;
#X connect 58 0 57 1;
#X connect 59 0 60 0;
#X connect 60 0 58 0;
#X connect 61 0 59 0;
#X restore 98 184 pd OSCILLATORS;
#N canvas 1 77 848 623 WAVEFORMS 0;
#X obj 308 81 loadbang;
#X obj 88 179 t f b;
#X obj 88 203 until;
#X obj 88 227 f 0;
#X obj 128 227 + 1;
#X msg 147 193 0;
#X obj 88 251 t f f;
#X obj 88 295 moses 258;
#X obj 88 359 tabwrite square;
#X msg 88 319 1;
#X msg 148 319 -1;
#X obj 358 179 t f b;
#X obj 358 203 until;
#X obj 358 227 f 0;
#X obj 398 227 + 1;
#X msg 417 193 0;
#X obj 358 251 t f f;
#X obj 358 409 tabwrite saw;
#X obj 358 275 / 258;
#X obj 358 299 - 1;
#X obj 358 323 * -1;
#X msg 88 155 515;
#X msg 358 155 515;
#X obj 647 286 array define square 515;
#X obj 647 316 array define saw 515;
#X connect 0 0 21 0;
#X connect 0 0 22 0;
#X connect 1 0 2 0;
#X connect 1 1 5 0;
#X connect 2 0 3 0;
#X connect 3 0 4 0;
#X connect 3 0 6 0;
#X connect 4 0 3 1;
#X connect 5 0 3 1;
#X connect 6 0 7 0;
#X connect 6 1 8 1;
#X connect 7 0 9 0;
#X connect 7 1 10 0;
#X connect 9 0 8 0;
#X connect 10 0 8 0;
#X connect 11 0 12 0;
#X connect 11 1 15 0;
#X connect 12 0 13 0;
#X connect 13 0 14 0;
#X connect 13 0 16 0;
#X connect 14 0 13 1;
#X connect 15 0 13 1;
#X connect 16 0 18 0;
#X connect 16 1 17 1;
#X connect 18 0 19 0;
#X connect 19 0 20 0;
#X connect 20 0 17 0;
#X connect 21 0 1 0;
#X connect 22 0 11 0;
#X restore 436 78 pd WAVEFORMS;
#N canvas 1 77 1166 628 LFO 0;
#X obj 26 176 osc~;
#X msg 26 70 \$1 5;
#X obj 26 94 line~;
#X obj 115 126 phasor~;
#X obj 115 150 *~ -2;
#X obj 283 393 *~;
#X obj 324 393 *~;
#X obj 317 42 r gLfo_type;
#X floatatom 317 66 5 0 0 0 - - -, f 5;
#X obj 317 87 sel 0 1 2;
#X msg 317 131 1;
#X obj 364 393 *~;
#X msg 327 161 0;
#X msg 357 131 1;
#X msg 367 161 0;
#X msg 397 131 1;
#X msg 407 161 0;
#X obj 207 176 samphold~;
#X msg 280 254 \$1 5;
#X obj 280 278 line~;
#X msg 350 254 \$1 5;
#X obj 350 278 line~;
#X msg 410 254 \$1 5;
#X obj 410 278 line~;
#X floatatom 26 49 5 0 0 1 LFO_freq - -, f 5;
#X obj 115 174 +~ 1;
#X obj 284 509 +~ 0.25;
#X obj 284 533 *~;
#X msg 470 184 \$1 5;
#X obj 470 208 line~;
#X obj 470 83 r gPwm;
#X floatatom 470 107 5 0 0 0 - - -, f 5;
#X obj 284 557 outlet~;
#X text 283 584 pwm out;
#X obj 26 11 r gLfo_freq;
#X obj 207 76 noise~;
#X obj 284 485 *~ 0.25;
#X obj 464 557 outlet~;
#X text 463 584 to FILTER;
#X obj 463 358 *~ 0.5;
#X obj 463 382 +~ 0.5;
#X obj 464 501 *~;
#X msg 600 184 \$1 5;
#X obj 600 208 line~;
#X msg 600 374 \$1 5;
#X obj 600 398 line~;
#X obj 600 83 r gLfo_filter;
#X floatatom 600 137 5 0 0 0 - - -, f 5;
#X obj 600 107 - 1;
#X obj 564 557 outlet~;
#X obj 564 491 *~;
#X text 563 584 to TUNE;
#X msg 790 184 \$1 5;
#X obj 790 208 line~;
#X floatatom 790 137 5 0 0 0 - - -, f 5;
#X obj 790 107 - 1;
#X obj 790 83 r gLfo_tune;
#X obj 788 404 +;
#X obj 866 320 t b f;
#X floatatom 788 428 5 0 0 0 - - -, f 5;
#X obj 788 449 mtof;
#X obj 871 401 mtof;
#X obj 788 473 -;
#X floatatom 788 497 5 0 0 0 - - -, f 5;
#X obj 788 329 r note;
#X floatatom 788 353 5 0 0 0 - - -, f 5;
#X obj 788 374 t f f;
#X obj 564 515 *~;
#X msg 630 494 \$1 5;
#X obj 630 518 line~;
#X obj 866 296 * 2;
#X text 723 584 to AMP;
#X floatatom 979 330 5 0 0 0 - - -, f 5;
#X msg 979 351 \$1 5;
#X obj 979 375 line~;
#X obj 979 290 - 1;
#X obj 979 266 r gLfo_amp;
#X obj 724 497 *~;
#X obj 724 561 outlet~;
#X obj 1071 352 sig~ 1;
#X obj 1071 376 -~;
#X obj 724 521 +~;
#X obj 600 422 *~ 0.5;
#X obj 600 302 - 20;
#X obj 600 326 abs;
#X floatatom 600 350 5 0 0 0 - - -, f 5;
#X obj 600 275 r cutoff;
#X obj 464 455 -~;
#X obj 464 431 *~ 14000;
#X obj 115 198 lop~ 80;
#X obj 464 525 lop~ 50;
#X connect 0 0 5 0;
#X connect 1 0 2 0;
#X connect 2 0 0 0;
#X connect 2 0 3 0;
#X connect 3 0 4 0;
#X connect 3 0 17 1;
#X connect 4 0 25 0;
#X connect 5 0 36 0;
#X connect 5 0 39 0;
#X connect 5 0 50 0;
#X connect 6 0 36 0;
#X connect 6 0 39 0;
#X connect 6 0 50 0;
#X connect 7 0 8 0;
#X connect 8 0 9 0;
#X connect 9 0 10 0;
#X connect 9 0 12 0;
#X connect 9 1 13 0;
#X connect 9 1 14 0;
#X connect 9 2 15 0;
#X connect 9 2 16 0;
#X connect 10 0 18 0;
#X connect 11 0 36 0;
#X connect 11 0 39 0;
#X connect 11 0 50 0;
#X connect 12 0 20 0;
#X connect 12 0 22 0;
#X connect 13 0 20 0;
#X connect 14 0 18 0;
#X connect 14 0 22 0;
#X connect 15 0 22 0;
#X connect 16 0 20 0;
#X connect 16 0 18 0;
#X connect 17 0 11 0;
#X connect 18 0 19 0;
#X connect 19 0 5 1;
#X connect 20 0 21 0;
#X connect 21 0 6 1;
#X connect 22 0 23 0;
#X connect 23 0 11 1;
#X connect 24 0 1 0;
#X connect 25 0 89 0;
#X connect 26 0 27 0;
#X connect 27 0 32 0;
#X connect 28 0 29 0;
#X connect 29 0 27 1;
#X connect 30 0 31 0;
#X connect 31 0 28 0;
#X connect 34 0 24 0;
#X connect 35 0 17 0;
#X connect 36 0 26 0;
#X connect 39 0 40 0;
#X connect 40 0 77 0;
#X connect 40 0 88 0;
#X connect 41 0 90 0;
#X connect 42 0 43 0;
#X connect 43 0 41 1;
#X connect 44 0 45 0;
#X connect 45 0 82 0;
#X connect 46 0 48 0;
#X connect 47 0 42 0;
#X connect 48 0 47 0;
#X connect 50 0 67 0;
#X connect 52 0 53 0;
#X connect 53 0 50 1;
#X connect 54 0 52 0;
#X connect 54 0 70 0;
#X connect 55 0 54 0;
#X connect 56 0 55 0;
#X connect 57 0 59 0;
#X connect 58 0 57 0;
#X connect 58 1 57 1;
#X connect 59 0 60 0;
#X connect 60 0 62 0;
#X connect 61 0 62 1;
#X connect 62 0 63 0;
#X connect 63 0 68 0;
#X connect 64 0 65 0;
#X connect 65 0 66 0;
#X connect 66 0 57 0;
#X connect 66 1 61 0;
#X connect 67 0 49 0;
#X connect 68 0 69 0;
#X connect 69 0 67 1;
#X connect 70 0 58 0;
#X connect 72 0 73 0;
#X connect 73 0 74 0;
#X connect 74 0 80 1;
#X connect 74 0 77 1;
#X connect 75 0 72 0;
#X connect 76 0 75 0;
#X connect 77 0 81 0;
#X connect 79 0 80 0;
#X connect 80 0 81 1;
#X connect 81 0 78 0;
#X connect 82 0 87 1;
#X connect 83 0 84 0;
#X connect 84 0 85 0;
#X connect 85 0 44 0;
#X connect 86 0 83 0;
#X connect 87 0 41 0;
#X connect 88 0 87 0;
#X connect 89 0 6 0;
#X connect 90 0 37 0;
#X restore 133 97 pd LFO;
#N canvas 1 77 810 687 FILTERS 0;
#X floatatom 196 114 7 0 0 0 cutoff - -, f 7;
#X floatatom 283 172 5 0 0 0 - - -, f 5;
#X obj 196 46 r cutoff;
#X obj 11 461 *~;
#X obj 101 461 *~;
#X obj 199 461 *~;
#X obj 369 222 r gFilter_type;
#X msg 333 368 \$1 5;
#X obj 333 392 line~;
#X msg 383 368 \$1 5;
#X obj 383 392 line~;
#X msg 433 368 \$1 5;
#X obj 433 392 line~;
#X msg 369 300 1;
#X msg 379 322 0;
#X msg 409 300 1;
#X msg 419 322 0;
#X msg 449 300 1;
#X msg 459 322 0;
#N canvas 1 77 467 307 CUTOFF 0;
#X obj 190 151 t b f;
#X obj 190 87 r gCutoff;
#X obj 62 247 s cutoff;
#X obj 290 83 r gFilter_type;
#X floatatom 62 103 5 0 0 0 - - -, f 5;
#X obj 62 79 r note;
#X obj 62 124 +;
#X obj 62 148 mtof;
#X floatatom 62 172 7 0 0 0 - - -, f 7;
#X obj 290 107 sel 2;
#X obj 190 120 +;
#X obj 290 155 t b f;
#X msg 320 131 0;
#X text 289 43 add +2 to "note" when \; HP filter is selected \;;
#X obj 62 193 min 15000;
#X msg 290 131 5;
#X obj 62 217 max 20;
#X connect 0 0 6 0;
#X connect 0 1 6 1;
#X connect 1 0 10 0;
#X connect 3 0 9 0;
#X connect 4 0 6 0;
#X connect 5 0 4 0;
#X connect 6 0 7 0;
#X connect 7 0 8 0;
#X connect 8 0 14 0;
#X connect 9 0 15 0;
#X connect 9 1 12 0;
#X connect 10 0 0 0;
#X connect 11 0 10 0;
#X connect 11 1 10 1;
#X connect 12 0 11 0;
#X connect 14 0 16 0;
#X connect 15 0 11 0;
#X connect 16 0 2 0;
#X restore 18 147 pd CUTOFF;
#X obj 283 36 r gQ;
#X obj 91 33 inlet~;
#X obj 91 327 cyclone/svf~;
#X obj 196 159 line~;
#X msg 196 135 \$1 10;
#X obj 91 655 outlet~;
#X obj 371 33 inlet~;
#X text 89 9 audio in;
#X text 369 9 LFO in;
#X obj 196 183 +~;
#X obj 471 33 inlet~;
#X text 469 9 EG in;
#X msg 579 254 \$1 5;
#X obj 579 278 line~;
#X floatatom 579 207 5 0 0 0 - - -, f 5;
#X obj 579 177 - 1;
#X obj 471 137 *~;
#X obj 579 153 r gEg_filter;
#X obj 560 344 sig~ 1;
#X obj 560 368 -~;
#X obj 196 237 *~;
#X obj 196 261 +~;
#X obj 471 161 sig_check;
#X floatatom 471 185 7 0 0 0 - - -, f 7;
#X obj 91 551 lop~ 16000;
#X obj 91 581 lop~ 16000;
#X obj 369 246 sel 2 1 0;
#X obj 196 207 clip~ 20 15000;
#X obj 91 605 hip~ 20;
#X connect 0 0 24 0;
#X connect 1 0 22 2;
#X connect 2 0 0 0;
#X connect 3 0 44 0;
#X connect 4 0 44 0;
#X connect 5 0 44 0;
#X connect 6 0 46 0;
#X connect 7 0 8 0;
#X connect 8 0 3 1;
#X connect 9 0 10 0;
#X connect 10 0 4 1;
#X connect 11 0 12 0;
#X connect 12 0 5 1;
#X connect 13 0 7 0;
#X connect 14 0 9 0;
#X connect 14 0 11 0;
#X connect 15 0 9 0;
#X connect 16 0 7 0;
#X connect 16 0 11 0;
#X connect 17 0 11 0;
#X connect 18 0 7 0;
#X connect 18 0 9 0;
#X connect 20 0 1 0;
#X connect 21 0 22 0;
#X connect 22 0 3 0;
#X connect 22 1 5 0;
#X connect 22 2 4 0;
#X connect 23 0 29 0;
#X connect 24 0 23 0;
#X connect 26 0 29 1;
#X connect 29 0 47 0;
#X connect 30 0 36 0;
#X connect 32 0 33 0;
#X connect 33 0 36 1;
#X connect 33 0 39 1;
#X connect 34 0 32 0;
#X connect 35 0 34 0;
#X connect 36 0 41 1;
#X connect 36 0 42 0;
#X connect 37 0 35 0;
#X connect 38 0 39 0;
#X connect 39 0 40 1;
#X connect 40 0 41 0;
#X connect 41 0 22 1;
#X connect 42 0 43 0;
#X connect 44 0 45 0;
#X connect 45 0 48 0;
#X connect 46 0 13 0;
#X connect 46 0 14 0;
#X connect 46 1 15 0;
#X connect 46 1 16 0;
#X connect 46 2 17 0;
#X connect 46 2 18 0;
#X connect 47 0 40 0;
#X connect 48 0 25 0;
#X restore 97 225 pd FILTERS;
#N canvas 1 77 975 676 EG 0;
#X obj 31 621 outlet~;
#X obj 90 484 vline~;
#X text 668 10 vel;
#X obj 32 564 expr~ $v1*$v2*$v3;
#X msg 454 320 0 24.0709;
#X obj 668 138 sel 1 0;
#X obj 172 331 del 1000;
#X obj 172 301 b;
#X obj 282 199 pack 0 0;
#X msg 90 257 1 5;
#X msg 90 175 set 1 \$1;
#X msg 204 380 0 161.326;
#X msg 282 223 set \$2 \$1;
#X msg 454 138 set 0 \$1;
#X text 568 10 pitch;
#X obj 668 115 > 0;
#X obj 31 38 sig~ 1;
#X obj 568 38 r note;
#X obj 668 38 r vel;
#X obj 422 88 r gRelease;
#X obj 289 88 r gSustain;
#X obj 289 112 - 1;
#X obj 189 88 r gDecay;
#X obj 90 88 r gAttack;
#X obj 172 355 t b b;
#X obj 318 355 spigot;
#X msg 357 312 1;
#X obj 289 168 t f b f;
#X msg 318 379 \$1 10;
#X msg 387 312 0;
#X obj 422 112 t b f;
#X obj 422 214 spigot;
#X msg 461 171 1;
#X msg 491 171 0;
#X obj 90 518 *~;
#X obj 291 621 outlet~;
#X text 31 648 to ADSR;
#X text 291 648 to LFO;
#X obj 291 558 *~ 9975;
#X obj 454 344 t b l;
#X msg 454 368 stop;
#X obj 291 582 +~ 25;
#X obj 318 403 s \$0_vline;
#X obj 90 436 r \$0_vline;
#X obj 486 402 s \$0_vline;
#X obj 90 301 s \$0_vline;
#X obj 204 404 s \$0_vline;
#X obj 148 524 / 127;
#X obj 568 92 stripnote;
#X obj 668 59 t f f;
#X obj 628 242 t f b;
#X obj 668 83 pipe 10;
#X obj 32 588 lop~ 50;
#X obj 628 266 pipe 8;
#X msg 660 298 0 8;
#X connect 1 0 34 0;
#X connect 1 0 34 1;
#X connect 3 0 52 0;
#X connect 4 0 39 0;
#X connect 5 0 9 0;
#X connect 5 0 33 0;
#X connect 5 1 4 0;
#X connect 5 1 29 0;
#X connect 5 1 32 0;
#X connect 6 0 24 0;
#X connect 7 0 6 0;
#X connect 8 0 12 0;
#X connect 9 0 7 0;
#X connect 9 0 45 0;
#X connect 10 0 9 0;
#X connect 11 0 46 0;
#X connect 12 0 11 0;
#X connect 13 0 4 0;
#X connect 15 0 5 0;
#X connect 16 0 3 0;
#X connect 17 0 48 0;
#X connect 18 0 49 0;
#X connect 19 0 30 0;
#X connect 20 0 21 0;
#X connect 21 0 27 0;
#X connect 22 0 8 0;
#X connect 23 0 10 0;
#X connect 23 0 6 1;
#X connect 24 0 26 0;
#X connect 24 1 11 0;
#X connect 25 0 28 0;
#X connect 26 0 25 1;
#X connect 27 0 25 0;
#X connect 27 1 8 0;
#X connect 27 2 8 1;
#X connect 28 0 42 0;
#X connect 29 0 25 1;
#X connect 30 0 31 0;
#X connect 30 1 13 0;
#X connect 31 0 4 0;
#X connect 32 0 31 1;
#X connect 33 0 31 1;
#X connect 34 0 3 1;
#X connect 38 0 41 0;
#X connect 39 0 40 0;
#X connect 39 1 44 0;
#X connect 40 0 6 0;
#X connect 41 0 35 0;
#X connect 43 0 1 0;
#X connect 47 0 3 2;
#X connect 48 1 50 0;
#X connect 49 0 51 0;
#X connect 49 1 48 1;
#X connect 50 0 53 0;
#X connect 50 1 54 0;
#X connect 51 0 15 0;
#X connect 52 0 0 0;
#X connect 52 0 38 0;
#X connect 53 0 47 0;
#X connect 54 0 1 0;
#X restore 248 186 pd EG;
#X obj 97 279 *~;
#X obj 248 280 *~;
#X floatatom 360 232 5 0 0 0 - - -, f 5;
#X msg 360 253 \$1 5;
#X obj 360 277 line~;
#X obj 360 168 r gEg_amp;
#X obj 360 192 - 1;
#X obj 97 347 *~;
#N canvas 1 77 450 300 START 0;
#X obj 145 28 loadbang;
#X msg 145 82 \; rgFilter_type 2 \; rgLfo_type 0 \; rgEg_amp 2 \; rgLfo_freq
0.3 \;;
#X connect 0 0 1 0;
#X restore 465 359 pd START;
#X obj 98 438 dac~;
#X obj 137 347 *~;
#X floatatom 430 232 5 0 0 0 - - -, f 5;
#X msg 430 253 \$1 5;
#X obj 430 277 line~;
#X obj 430 192 - 1;
#X obj 430 168 r gInitial_amp;
#X obj 97 381 *~ 0.5;
#X msg 339 418 \; pd dsp \$1 \;;
#X obj 339 360 r dsp_on_off;
#X obj 339 384 tgl 15 0 empty empty empty 17 7 0 10 -262144 -1 -1 0
1;
#N canvas 1 77 590 428 MIDI 0;
#X obj 43 36 notein;
#X floatatom 43 60 5 0 0 0 - - -, f 5;
#X floatatom 62 80 5 0 0 0 - - -, f 5;
#X floatatom 82 100 5 0 0 0 - - -, f 5;
#X obj 274 76 r note;
#X obj 274 100 mtof;
#X floatatom 274 124 7 0 0 0 freq_Hz - -, f 7;
#X obj 274 145 s freq;
#X obj 151 58 r gTune;
#X floatatom 151 82 5 0 0 0 - - -, f 5;
#X floatatom 151 194 5 0 0 0 - - -, f 5;
#X obj 151 103 t b f;
#X obj 151 170 +;
#N canvas 1 77 460 371 mono_note 0;
#X floatatom 195 79 5 0 0 0 - - -, f 5;
#X floatatom 253 79 5 0 0 0 - - -, f 5;
#X obj 225 125 stripnote;
#X obj 253 100 t f f;
#X obj 195 154 ==;
#X obj 226 241 f;
#X obj 195 178 sel 1;
#X obj 195 100 t f f f;
#X obj 195 35 inlet;
#X obj 253 35 inlet;
#X obj 165 281 outlet;
#X obj 226 281 outlet;
#X text 196 13 note;
#X text 255 13 vel;
#X obj 165 241 f;
#X obj 195 202 t b b;
#X connect 0 0 7 0;
#X connect 1 0 3 0;
#X connect 2 0 4 1;
#X connect 3 0 5 1;
#X connect 3 1 2 1;
#X connect 4 0 6 0;
#X connect 5 0 11 0;
#X connect 6 0 15 0;
#X connect 7 0 4 0;
#X connect 7 1 14 1;
#X connect 7 2 2 0;
#X connect 8 0 0 0;
#X connect 9 0 1 0;
#X connect 14 0 10 0;
#X connect 15 0 14 0;
#X connect 15 1 5 0;
#X restore 43 147 pd mono_note;
#X obj 284 240 mtof;
#X floatatom 284 264 7 0 0 0 freq_Hz - -, f 7;
#X obj 284 285 s tune;
#X obj 43 171 t f f;
#X obj 75 221 s i_note;
#X obj 124 284 s i_vel;
#X connect 0 0 1 0;
#X connect 0 1 2 0;
#X connect 0 2 3 0;
#X connect 1 0 13 0;
#X connect 2 0 13 1;
#X connect 4 0 5 0;
#X connect 5 0 6 0;
#X connect 6 0 7 0;
#X connect 8 0 9 0;
#X connect 9 0 11 0;
#X connect 10 0 14 0;
#X connect 11 0 12 0;
#X connect 11 1 12 1;
#X connect 12 0 10 0;
#X connect 13 0 17 0;
#X connect 13 1 19 0;
#X connect 14 0 15 0;
#X connect 15 0 16 0;
#X connect 17 0 12 0;
#X connect 17 1 18 0;
#X restore 436 48 pd MIDI;
#X connect 0 0 3 0;
#X connect 2 0 0 0;
#X connect 2 1 3 1;
#X connect 2 2 0 1;
#X connect 2 3 5 1;
#X connect 3 0 5 0;
#X connect 4 0 6 0;
#X connect 4 1 3 2;
#X connect 5 0 12 0;
#X connect 5 0 15 0;
#X connect 6 0 15 1;
#X connect 7 0 8 0;
#X connect 8 0 9 0;
#X connect 9 0 6 1;
#X connect 10 0 11 0;
#X connect 11 0 7 0;
#X connect 12 0 21 0;
#X connect 15 0 21 0;
#X connect 16 0 17 0;
#X connect 17 0 18 0;
#X connect 18 0 12 1;
#X connect 19 0 16 0;
#X connect 20 0 19 0;
#X connect 21 0 14 0;
#X connect 21 0 14 1;
#X connect 23 0 24 0;
#X connect 24 0 22 0;
#X restore 283 386 pd CORE;
#N canvas 1 77 677 614 VIRTUAL_KEY 0;
#X obj 31 135 bng 35 250 50 0 empty empty empty 17 7 0 10 -262144 -1
-1;
#X obj 71 135 bng 35 250 50 0 empty empty empty 17 7 0 10 -262144 -1
-1;
#X obj 111 135 bng 35 250 50 0 empty empty empty 17 7 0 10 -262144
-1 -1;
#X obj 151 135 bng 35 250 50 0 empty empty empty 17 7 0 10 -262144
-1 -1;
#X obj 191 135 bng 35 250 50 0 empty empty empty 17 7 0 10 -262144
-1 -1;
#X obj 231 135 bng 35 250 50 0 empty empty empty 17 7 0 10 -262144
-1 -1;
#X obj 271 135 bng 35 250 50 0 empty empty empty 17 7 0 10 -262144
-1 -1;
#X obj 56 105 bng 25 250 50 0 empty empty empty 17 7 0 10 -128992 -1
-1;
#X obj 96 105 bng 25 250 50 0 empty empty empty 17 7 0 10 -128992 -1
-1;
#X obj 176 105 bng 25 250 50 0 empty empty empty 17 7 0 10 -128992
-1 -1;
#X obj 216 105 bng 25 250 50 0 empty empty empty 17 7 0 10 -128992
-1 -1;
#X obj 256 105 bng 25 250 50 0 empty empty empty 17 7 0 10 -128992
-1 -1;
#X obj 101 379 +;
#X obj 326 117 vradio 15 1 0 6 empty empty feet 0 -8 0 10 -262144 -1
-1 1;
#X text 347 116 64';
#X text 347 192 2';
#X text 347 176 4';
#X text 347 148 16';
#X text 347 132 32';
#X text 347 162 8';
#X obj 371 376 * 12;
#X msg 31 285 24;
#X msg 51 255 25;
#X msg 71 285 26;
#X msg 91 255 27;
#X msg 111 285 28;
#X msg 151 285 29;
#X msg 171 255 30;
#X msg 191 285 31;
#X msg 211 255 32;
#X msg 231 285 33;
#X msg 251 255 34;
#X msg 271 285 35;
#X text 111 182 VIRTUAL MIDI KEYBOARD;
#X obj 101 417 makenote 100 800;
#X obj 101 453 s i_note;
#X obj 171 453 s i_vel;
#X connect 0 0 21 0;
#X connect 1 0 23 0;
#X connect 2 0 25 0;
#X connect 3 0 26 0;
#X connect 4 0 28 0;
#X connect 5 0 30 0;
#X connect 6 0 32 0;
#X connect 7 0 22 0;
#X connect 8 0 24 0;
#X connect 9 0 27 0;
#X connect 10 0 29 0;
#X connect 11 0 31 0;
#X connect 12 0 34 0;
#X connect 13 0 20 0;
#X connect 20 0 12 1;
#X connect 21 0 12 0;
#X connect 22 0 12 0;
#X connect 23 0 12 0;
#X connect 24 0 12 0;
#X connect 25 0 12 0;
#X connect 26 0 12 0;
#X connect 27 0 12 0;
#X connect 28 0 12 0;
#X connect 29 0 12 0;
#X connect 30 0 12 0;
#X connect 31 0 12 0;
#X connect 32 0 12 0;
#X connect 34 0 35 0;
#X connect 34 1 36 0;
#X coords 0 -1 1 1 350 115 2 25 100;
#X restore 464 195 pd VIRTUAL_KEY;
#X obj 3 3 cnv 15 120 180 empty empty LFO 20 12 0 20 -162280 -66577
0;
#X obj 133 3 cnv 15 120 180 empty empty VCO 20 12 0 20 -233017 -66577
0;
#X obj 403 3 cnv 15 150 180 empty empty VCF 20 12 0 20 -233017 -66577
0;
#X obj 263 3 cnv 15 130 180 empty empty MIXER 20 12 0 20 -162280 -66577
0;
#X obj 563 3 cnv 15 130 180 empty empty EG 20 12 0 20 -162280 -66577
0;
#X obj 318 69 vsl 20 100 0 100 0 0 gSquare_vol rgSquare_vol square
0 -9 0 10 -262144 -1 -1 0 0;
#X obj 358 69 vsl 20 100 0 100 0 0 gSaw_vol rgSaw_vol saw 0 -9 0 10
-262144 -1 -1 0 0;
#X obj 22 86 vradio 15 1 0 3 gLfo_type rgLfo_type LFO 0 -8 0 10 -262144
-1 -1 0;
#X text 40 84 sine;
#X text 40 99 saw;
#X text 40 114 S&H;
#X obj 25 157 hsl 80 15 0.3 100 1 0 gLfo_freq rgLfo_freq speed -2 -8
0 10 -262144 -1 -1 0 0;
#X obj 150 157 hsl 80 15 0 0.9 0 0 gPwm rgPwm pwm -2 -8 0 10 -262144
-1 -1 0 0;
#X obj 508 57 vradio 15 1 0 3 gFilter_type rgFilter_type filter 0 -8
0 10 -262144 -1 -1 2;
#X text 526 70 BP;
#X obj 415 57 hsl 80 15 -25 65 0 0 gCutoff rgCutoff cutoff -2 -8 0
10 -262144 -1 -1 0 0;
#X obj 415 87 hsl 80 15 0 0.65 0 0 gQ rgQ resonance -2 -8 0 10 -262144
-1 -1 0 0;
#X obj 415 127 hsl 80 15 1 2 1 0 gLfo_filter rgLfo_filter LFO_mod -2
-8 0 10 -262144 -1 -1 0 0;
#X obj 572 69 vsl 20 100 5 7000 1 1 gAttack rgAttack A 0 -9 0 10 -262144
-1 -1 0 0;
#X obj 602 69 vsl 20 100 5 18000 1 1 gDecay rgDecay D 0 -9 0 10 -262144
-1 -1 4200 0;
#X obj 632 69 vsl 20 100 1 2 1 1 gSustain rgSustain S 0 -9 0 10 -262144
-1 -1 0 0;
#X obj 662 69 vsl 20 100 5 18000 1 1 gRelease rgRelease R 0 -9 0 10
-262144 -1 -1 1900 0;
#X obj 415 157 hsl 80 15 1 1.5 1 0 gEg_filter rgEg_filter EG_depth
-2 -8 0 10 -262144 -1 -1 0 0;
#X obj 150 127 hsl 80 15 5 3500 0 0 gPorta rgPorta portamento -2 -8
0 10 -262144 -1 -1 0 0;
#X obj 150 57 hsl 80 15 -2 2 0 1 gTune rgTune tune -2 -8 0 10 -262144
-1 -1 3950 0;
#X msg 204 38 0;
#X obj 150 97 hsl 80 15 1 2 1 0 gLfo_tune rgLfo_tune LFO_mod -2 -8
0 10 -262144 -1 -1 0 0;
#X obj 278 69 vsl 20 100 0 100 0 0 gNoise_vol rgNoise_vol noise 0 -9
0 10 -262144 -1 -1 0 0;
#X text 526 55 HP;
#X text 526 85 LP;
#X obj 703 3 cnv 15 200 180 empty empty VCA 20 12 0 20 -233017 -66577
0;
#X obj 807 127 hsl 80 15 1 2 1 0 gInitial_amp rgInitial_amp initial_level
-2 -8 0 10 -262144 -1 -1 0 0;
#X obj 717 157 hsl 80 15 1 2 1 0 gLfo_amp rgLfo_amp LFO_mod -2 -8 0
10 -262144 -1 -1 0 0;
#X obj 807 157 hsl 80 15 1 2 1 0 gEg_amp rgEg_amp EG_depth -2 -8 0
10 -262144 -1 -1 7900 0;
#X text 756 36 based on Yamaha CS-5;
#X obj 703 3 cnv 15 10 10 empty empty Pd-5 135 20 0 26 -233017 -66577
0;
#X obj 4 195 MIDI_arp;
#X obj 149 195 filter_arp;
#X connect 28 0 27 0;
