#N canvas 105 97 1198 637 12;
#X floatatom 259 107 7 0 0 0 - - -, f 7;
#X obj 259 59 * 0.00787402;
#X obj 259 83 + 1;
#X obj 259 128 s rgLfo_tune;
#X obj 399 29 * 0.00787402;
#X obj 399 53 * 3495;
#X floatatom 399 107 7 0 0 0 - - -, f 7;
#X obj 399 128 s rgPorta;
#X obj 399 77 + 5;
#X obj 519 59 * 0.00787402;
#X floatatom 519 107 7 0 0 0 - - -, f 7;
#X obj 519 128 s rgPwm;
#X obj 519 83 * 0.9;
#X obj 640 59 * 0.00787402;
#X floatatom 640 107 7 0 0 0 - - -, f 7;
#X obj 640 128 s rgNoise_vol;
#X obj 640 83 * 100;
#X obj 740 59 * 0.00787402;
#X floatatom 740 107 7 0 0 0 - - -, f 7;
#X obj 740 83 * 100;
#X obj 740 128 s rgSquare_vol;
#X obj 850 59 * 0.00787402;
#X floatatom 850 107 7 0 0 0 - - -, f 7;
#X obj 850 83 * 100;
#X obj 850 128 s rgSaw_vol;
#X floatatom 39 350 7 0 0 0 - - -, f 7;
#X obj 39 272 * 0.00787402;
#X obj 39 296 * 90;
#X obj 39 320 - 25;
#X obj 39 371 s rgCutoff;
#X floatatom 139 350 7 0 0 0 - - -, f 7;
#X obj 139 272 * 0.00787402;
#X obj 139 371 s rgQ;
#X obj 139 296 * 0.65;
#X floatatom 239 350 7 0 0 0 - - -, f 7;
#X obj 239 272 * 0.00787402;
#X obj 239 296 + 1;
#X obj 239 371 s rgLfo_filter;
#X floatatom 349 350 7 0 0 0 - - -, f 7;
#X obj 349 296 + 1;
#X obj 349 371 s rgEg_filter;
#X obj 349 272 * 0.00393701;
#X floatatom 579 350 7 0 0 0 - - -, f 7;
#X obj 579 371 s rgAttack;
#X obj 579 296 * 6995;
#X obj 579 320 + 5;
#X floatatom 679 350 7 0 0 0 - - -, f 7;
#X obj 679 222 * 0.00787402;
#X obj 679 320 + 5;
#X obj 679 371 s rgDecay;
#X obj 679 246 t f f;
#X obj 679 270 *;
#X obj 679 296 * 17995;
#X obj 579 222 * 0.00787402;
#X obj 579 246 t f f;
#X obj 579 270 *;
#X floatatom 859 350 7 0 0 0 - - -, f 7;
#X obj 859 222 * 0.00787402;
#X obj 859 320 + 5;
#X obj 859 246 t f f;
#X obj 859 270 *;
#X obj 859 296 * 17995;
#X obj 859 371 s rgRelease;
#X floatatom 769 350 7 0 0 0 - - -, f 7;
#X obj 769 320 + 1;
#X obj 769 371 s rgSustain;
#X obj 769 222 * 0.00787402;
#X floatatom 39 502 7 0 0 0 - - -, f 7;
#X obj 39 472 + 1;
#X obj 39 444 * 0.00787402;
#X obj 39 523 s rgLfo_amp;
#X floatatom 149 502 7 0 0 0 - - -, f 7;
#X obj 149 472 + 1;
#X obj 149 444 * 0.00787402;
#X floatatom 259 502 7 0 0 0 - - -, f 7;
#X obj 259 472 + 1;
#X obj 259 444 * 0.00787402;
#X obj 149 523 s rgEg_amp;
#X obj 259 523 s rgInitial_amp;
#X floatatom 39 107 7 0 0 0 - - -, f 7;
#X obj 39 128 s rgLfo_freq;
#X obj 39 59 * 0.785039;
#X obj 39 83 + 0.3;
#X floatatom 159 107 7 0 0 0 - - -, f 7;
#X obj 159 128 s rgLfo_type;
#X obj 159 83 int;
#X obj 159 59 * 0.015748;
#X floatatom 451 350 7 0 0 0 - - -, f 7;
#X obj 451 326 int;
#X obj 451 371 s rgFilter_type;
#X obj 451 252 * 0.015748;
#X obj 451 300 -;
#X obj 451 276 swap 2;
#X text 562 446 ----------------------------------------- \; -----------Pd-5
- MIDI routing----------- \; -----------------------------------------
\; put the correct [ctlin] and connect \; them to the relative [s]
object \; the algorithm accepts MIDI values (0-127) \;;
#X connect 0 0 3 0;
#X connect 1 0 2 0;
#X connect 2 0 0 0;
#X connect 4 0 5 0;
#X connect 5 0 8 0;
#X connect 6 0 7 0;
#X connect 8 0 6 0;
#X connect 9 0 12 0;
#X connect 10 0 11 0;
#X connect 12 0 10 0;
#X connect 13 0 16 0;
#X connect 14 0 15 0;
#X connect 16 0 14 0;
#X connect 17 0 19 0;
#X connect 18 0 20 0;
#X connect 19 0 18 0;
#X connect 21 0 23 0;
#X connect 22 0 24 0;
#X connect 23 0 22 0;
#X connect 25 0 29 0;
#X connect 26 0 27 0;
#X connect 27 0 28 0;
#X connect 28 0 25 0;
#X connect 30 0 32 0;
#X connect 31 0 33 0;
#X connect 33 0 30 0;
#X connect 34 0 37 0;
#X connect 35 0 36 0;
#X connect 36 0 34 0;
#X connect 38 0 40 0;
#X connect 39 0 38 0;
#X connect 41 0 39 0;
#X connect 42 0 43 0;
#X connect 44 0 45 0;
#X connect 45 0 42 0;
#X connect 46 0 49 0;
#X connect 47 0 50 0;
#X connect 48 0 46 0;
#X connect 50 0 51 0;
#X connect 50 1 51 1;
#X connect 51 0 52 0;
#X connect 52 0 48 0;
#X connect 53 0 54 0;
#X connect 54 0 55 0;
#X connect 54 1 55 1;
#X connect 55 0 44 0;
#X connect 56 0 62 0;
#X connect 57 0 59 0;
#X connect 58 0 56 0;
#X connect 59 0 60 0;
#X connect 59 1 60 1;
#X connect 60 0 61 0;
#X connect 61 0 58 0;
#X connect 63 0 65 0;
#X connect 64 0 63 0;
#X connect 66 0 64 0;
#X connect 67 0 70 0;
#X connect 68 0 67 0;
#X connect 69 0 68 0;
#X connect 71 0 77 0;
#X connect 72 0 71 0;
#X connect 73 0 72 0;
#X connect 74 0 78 0;
#X connect 75 0 74 0;
#X connect 76 0 75 0;
#X connect 79 0 80 0;
#X connect 81 0 82 0;
#X connect 82 0 79 0;
#X connect 83 0 84 0;
#X connect 85 0 83 0;
#X connect 86 0 85 0;
#X connect 87 0 89 0;
#X connect 88 0 87 0;
#X connect 90 0 92 0;
#X connect 91 0 88 0;
#X connect 92 0 91 0;
#X connect 92 1 91 1;
