#N canvas 1 77 796 456 12;
#X obj 257 30 loadbang;
#X obj 37 128 t f b;
#X obj 37 152 until;
#X obj 37 176 f 0;
#X obj 77 176 + 1;
#X msg 96 142 0;
#X obj 37 200 t f f;
#X obj 37 244 moses 258;
#X obj 37 308 tabwrite square;
#X msg 37 268 1;
#X msg 97 268 -1;
#X obj 307 128 t f b;
#X obj 307 152 until;
#X obj 307 176 f 0;
#X obj 347 176 + 1;
#X msg 366 142 0;
#X obj 307 200 t f f;
#X obj 307 308 tabwrite saw;
#X obj 307 224 / 258;
#X obj 307 248 - 1;
#X obj 307 272 * -1;
#X msg 37 104 515;
#X msg 307 104 515;
#X obj 33 393 array define square 515;
#X obj 33 423 array define saw 515;
#X connect 0 0 21 0;
#X connect 0 0 22 0;
#X connect 1 0 2 0;
#X connect 1 1 5 0;
#X connect 2 0 3 0;
#X connect 3 0 4 0;
#X connect 3 0 6 0;
#X connect 4 0 3 1;
#X connect 5 0 3 1;
#X connect 6 0 7 0;
#X connect 6 1 8 1;
#X connect 7 0 9 0;
#X connect 7 1 10 0;
#X connect 9 0 8 0;
#X connect 10 0 8 0;
#X connect 11 0 12 0;
#X connect 11 1 15 0;
#X connect 12 0 13 0;
#X connect 13 0 14 0;
#X connect 13 0 16 0;
#X connect 14 0 13 1;
#X connect 15 0 13 1;
#X connect 16 0 18 0;
#X connect 16 1 17 1;
#X connect 18 0 19 0;
#X connect 19 0 20 0;
#X connect 20 0 17 0;
#X connect 21 0 1 0;
#X connect 22 0 11 0;
